<mxfile host="app.diagrams.net" modified="2023-10-06T20:39:48.941Z" agent="Mozilla/5.0 (Macintosh; Intel Mac OS X 10_15_7) AppleWebKit/537.36 (KHTML, like Gecko) Chrome/116.0.0.0 Safari/537.36" version="21.8.2" etag="YgMqJKB-KY640ok97Zel" type="github">
  <diagram name="Page-1" id="0YtAbwkBmNU4V_VopZeC">
    <mxGraphModel>
      <root>
        <mxCell id="0" />
        <mxCell id="1" parent="0" />
      </root>
    </mxGraphModel>
  </diagram>
</mxfile>
